<svg width="377" height="55" viewBox="0 0 377 55" fill="none" xmlns="http://www.w3.org/2000/svg">
<path fill-rule="evenodd" clip-rule="evenodd" d="M21.028 0.952759H0.829834V8.94551H20.0028C25.1445 8.94551 29.293 11.5083 29.293 16.6339V16.8742H37.3178V16.3136C37.3338 7.11952 29.5173 0.952759 21.028 0.952759ZM311.138 11.9408C311.857 12.6278 312.735 12.9642 313.741 12.966L313.733 12.966H313.749L313.741 12.966C314.762 12.9642 315.641 12.6278 316.36 11.9569C317.08 11.2841 317.449 10.4512 317.449 9.50618C317.449 8.56114 317.08 7.74425 316.36 7.05549C315.623 6.36674 314.758 6.03037 313.749 6.03037C312.74 6.03037 311.875 6.36674 311.138 7.03947C310.417 7.72823 310.049 8.54512 310.049 9.49016C310.049 10.4352 310.417 11.2521 311.138 11.9408ZM310.545 16.8262V43.9599H316.936V16.8262H310.545ZM101.532 7.77625H93.5074H93.4754V43.9759H99.7703V19.0526H100.107L110.118 43.8638H114.827L124.838 19.1007H125.174V43.9599H131.469V7.77625H123.444L112.696 33.997H112.28L101.532 7.77625ZM138.885 53.8908C139.622 54.0349 140.439 54.099 141.304 54.099L141.288 54.083C142.97 54.083 144.411 53.8107 145.612 53.2661C146.83 52.7215 147.855 51.9366 148.688 50.9115C149.521 49.8864 150.194 48.669 150.706 47.2595L161.614 16.8582L154.775 16.8262L148.496 37.3286H148.207L141.944 16.8262H135.153L145.004 44.5365L144.459 46.0101C143.851 47.4998 143.066 48.3968 142.121 48.653C141.176 48.9093 140.006 48.8452 138.613 48.4448L137.123 53.4102C137.556 53.5864 138.148 53.7626 138.885 53.8908ZM176.687 43.9599V7.77625H183.238V38.4659H199.175V43.9599H176.687ZM208.545 42.7907C210.516 43.9279 212.87 44.4885 215.593 44.4885C217.707 44.4885 219.582 44.1682 221.215 43.5275C222.849 42.8868 224.195 41.9738 225.252 40.8045C226.309 39.6192 227.014 38.2577 227.398 36.672L221.424 35.9992C221.151 36.7681 220.735 37.4088 220.174 37.9213C219.63 38.4339 218.973 38.8183 218.22 39.0906C217.467 39.3629 216.618 39.491 215.689 39.491C214.296 39.491 213.094 39.1867 212.053 38.5941C211.012 38.0014 210.211 37.1365 209.635 36.0152C209.079 34.9358 208.792 33.6484 208.771 32.139H227.67V30.1848C227.67 27.7982 227.334 25.748 226.677 24.0181C226.021 22.2882 225.124 20.8626 223.97 19.7414C222.817 18.6202 221.504 17.7873 220.014 17.2587C218.524 16.7301 216.939 16.4578 215.273 16.4578C212.678 16.4578 210.419 17.0505 208.497 18.2358C206.575 19.4211 205.086 21.0709 204.012 23.1852C202.939 25.2995 202.411 27.7181 202.411 30.5532C202.411 33.3884 202.939 35.8711 203.996 37.9534C205.054 40.0356 206.575 41.6534 208.545 42.7907ZM208.779 27.8303C208.831 26.7571 209.113 25.7717 209.603 24.851C210.147 23.8419 210.916 23.009 211.909 22.3843C212.902 21.7596 214.039 21.4393 215.353 21.4393C216.57 21.4393 217.643 21.7116 218.572 22.2722C219.501 22.8328 220.222 23.5856 220.735 24.5467C221.263 25.5077 221.536 26.5969 221.536 27.8303H208.779ZM242.15 44.4405C240.02 44.4405 238.114 43.8959 236.416 42.7907C234.718 41.6854 233.405 40.0997 232.428 38.0174C231.451 35.9351 230.954 33.4044 230.954 30.4251C230.954 27.4458 231.451 24.867 232.444 22.7847C233.437 20.7025 234.782 19.1327 236.48 18.0596C238.178 16.9864 240.068 16.4578 242.15 16.4578C243.736 16.4578 245.049 16.7301 246.075 17.2587C247.1 17.7873 247.917 18.444 248.509 19.1808C249.102 19.9176 249.582 20.6384 249.903 21.2951H250.175V16.8102H256.582V43.9599H250.287V39.6833H249.903C249.566 40.34 249.102 41.0447 248.477 41.7816C247.852 42.5184 247.036 43.143 246.01 43.6716C244.985 44.1842 243.688 44.4565 242.134 44.4565L242.15 44.4405ZM243.928 39.1867C245.29 39.1867 246.443 38.8183 247.388 38.0815C248.349 37.3447 249.07 36.3196 249.566 34.9901C250.063 33.6767 250.303 32.139 250.303 30.3771C250.303 28.6151 250.063 27.0935 249.566 25.796C249.07 24.4986 248.365 23.4895 247.404 22.7687C246.459 22.0479 245.29 21.6955 243.912 21.6955C242.535 21.6955 241.301 22.0639 240.34 22.8008C239.379 23.5376 238.674 24.5627 238.178 25.8761C237.697 27.1896 237.457 28.6792 237.457 30.361C237.457 32.0429 237.697 33.5645 238.194 34.894C238.674 36.2235 239.411 37.2646 240.372 38.0174C241.333 38.7703 242.519 39.1547 243.912 39.1547L243.928 39.1867ZM262.444 16.8262V43.9599H262.461H268.852V28.0064C268.852 26.8532 269.124 25.844 269.652 24.9471C270.181 24.0501 270.902 23.3613 271.831 22.8648C272.76 22.3682 273.801 22.112 274.97 22.112C275.499 22.112 276.075 22.144 276.652 22.2241C277.229 22.3042 277.661 22.3843 277.933 22.4804V16.6019C277.645 16.5539 277.277 16.5058 276.828 16.4738C276.38 16.4257 275.979 16.4257 275.627 16.4257C274.073 16.4257 272.68 16.8582 271.478 17.7071C270.277 18.5721 269.428 19.7734 268.932 21.3431H268.643V16.8262H262.444ZM287.592 28.0705V43.9599H281.201V16.8262H287.32V21.4392H287.64C288.265 19.9176 289.258 18.7163 290.635 17.8193C292.013 16.9223 293.711 16.4738 295.729 16.4738C297.603 16.4738 299.237 16.8742 300.63 17.6751C302.024 18.476 303.113 19.6293 303.882 21.1509C304.651 22.6726 305.035 24.5146 305.019 26.677V43.9599H298.628V27.6701C298.628 25.8601 298.164 24.4345 297.219 23.4094C296.274 22.3843 294.992 21.8717 293.342 21.8717C292.221 21.8717 291.228 22.112 290.363 22.6085C289.498 23.1051 288.825 23.7938 288.329 24.7228C287.832 25.6358 287.592 26.7571 287.592 28.0705ZM328.917 28.0705V43.9599H322.526V16.8262H328.645V21.4392H328.965C329.59 19.9176 330.583 18.7163 331.961 17.8193C333.338 16.9223 335.036 16.4738 337.054 16.4738C338.928 16.4738 340.562 16.8742 341.956 17.6751C343.349 18.476 344.438 19.6293 345.207 21.1509C345.976 22.6726 346.36 24.5146 346.344 26.677V43.9599H339.953V27.6701C339.953 25.8601 339.489 24.4345 338.544 23.4094C337.599 22.3843 336.317 21.8717 334.668 21.8717C333.546 21.8717 332.553 22.112 331.688 22.6085C330.823 23.1051 330.151 23.7938 329.654 24.7228C329.158 25.6358 328.917 26.7571 328.917 28.0705ZM357.749 53.6986C359.397 54.3065 361.38 54.6109 363.667 54.6116C366.099 54.6108 368.274 54.2424 370.195 53.4903C372.101 52.7375 373.622 51.6163 374.727 50.0946C375.833 48.573 376.393 46.6829 376.393 44.4084V16.8262H370.082V21.3111H369.73C369.41 20.6544 368.945 19.9496 368.336 19.1968C367.728 18.46 366.895 17.8033 365.87 17.2747C364.829 16.7461 363.515 16.4738 361.929 16.4738C359.847 16.4738 357.957 17.0024 356.259 18.0756C354.561 19.1327 353.216 20.7024 352.223 22.7527C351.23 24.8189 350.733 27.3497 350.733 30.313C350.733 33.2762 351.23 35.7269 352.223 37.697C353.232 39.6672 354.561 41.1408 356.259 42.1179C357.957 43.095 359.847 43.5915 361.929 43.5915C363.483 43.5915 364.781 43.3512 365.806 42.8867C366.847 42.4222 367.68 41.8456 368.304 41.1408C368.929 40.436 369.41 39.7633 369.746 39.1066H370.066V44.2482C370.066 46.2024 369.474 47.6119 368.288 48.4769C367.103 49.3578 365.597 49.7903 363.788 49.7903C362.506 49.7903 361.449 49.6141 360.6 49.2617C359.767 48.9093 359.094 48.4769 358.598 47.9643C358.101 47.4517 357.717 46.9552 357.461 46.4747L351.694 47.8682C352.079 49.1015 352.783 50.2228 353.777 51.2479C354.77 52.273 356.099 53.0899 357.749 53.6986ZM367.183 37.5689C366.238 38.2256 365.085 38.562 363.723 38.562L363.707 38.546C362.314 38.546 361.129 38.1936 360.168 37.5048C359.206 36.8161 358.47 35.855 357.989 34.6057C357.493 33.3563 357.252 31.8827 357.252 30.2489C357.252 28.6151 357.493 27.1575 357.973 25.8601C358.47 24.5787 359.174 23.5536 360.135 22.8167C361.097 22.0799 362.33 21.7115 363.707 21.7115C365.085 21.7115 366.254 22.0799 367.199 22.7847C368.16 23.5055 368.865 24.4986 369.362 25.78C369.858 27.0614 370.098 28.535 370.098 30.2649C370.098 31.9948 369.858 33.4844 369.362 34.7178C368.865 35.9672 368.144 36.9122 367.183 37.5689ZM73.8218 0.952779H53.6237C45.1344 0.952779 37.3338 7.11954 37.3338 16.3136V16.8742H45.3586V16.634C45.3586 11.5083 49.5072 8.94554 54.6488 8.94554H73.8218V0.952779ZM21.028 18.476H0.829834V26.4687H20.0028C25.1445 26.4687 29.293 29.0315 29.293 34.1572V34.3974H37.3178V33.8368C37.3178 24.6427 29.5012 18.476 21.028 18.476ZM73.8218 18.476H53.6237C45.1504 18.476 37.3338 24.6427 37.3338 33.8368V34.3974H45.3586V34.1572C45.3586 29.0315 49.5072 26.4687 54.6488 26.4687H73.8218V18.476ZM21.028 35.9992H0.829834V43.9919H20.0028C25.1445 43.9919 29.293 46.5547 29.293 51.6804V51.9206H37.3178V51.36C37.3178 42.1659 29.5012 35.9992 21.028 35.9992ZM73.8218 35.9992H53.6237C45.1504 35.9992 37.3338 42.1659 37.3338 51.36V51.9206H45.3586V51.6804C45.3586 46.5547 49.5072 43.9919 54.6488 43.9919H73.8218V35.9992Z" fill="#EC0B5C"/>
</svg>
