<svg width="353" height="46" viewBox="0 0 353 46" fill="none" xmlns="http://www.w3.org/2000/svg">
<path d="M3.41315 31.8327C5.77715 30.9245 8.03155 32.1928 8.87695 33.9621C9.78497 35.841 11.8515 37.9078 15.6088 37.9078C19.3662 37.9078 21.6832 36.2012 21.7458 33.4767C21.8085 31.5978 20.9631 29.9538 16.7047 28.7481L11.6636 27.3546C2.44251 24.4893 0.861294 19.197 0.861294 15.4391C0.861294 7.97046 7.23311 2.92871 15.2488 2.92871C21.2605 2.92871 25.7537 5.54353 27.9924 9.91201C29.0257 11.9162 28.1803 13.8577 26.6617 14.8285C24.4699 16.222 22.5286 15.6114 21.0726 13.7951C19.3192 11.5561 17.0022 10.8828 15.1235 10.8828C12.0237 10.8828 9.72235 12.6991 9.72235 15.1886C9.72235 16.2847 10.1451 18.2888 14.2155 19.4318L19.194 20.888C29.3388 23.8003 30.7948 29.5153 30.6695 33.5237C30.5443 41.8379 23.0139 45.7836 15.6088 45.7836C8.20376 45.7836 2.86521 42.2137 1.03351 36.8118C0.360316 34.6824 1.33096 32.6156 3.3975 31.8327H3.41315ZM34.5521 16.8953V9.48925C34.6147 7.42245 36.556 5.73142 38.7948 5.73142C41.0335 5.73142 43.0374 7.37547 43.0374 9.48925V16.8953H46.2625C47.9689 16.8953 49.2996 18.4141 49.2996 20.2304C49.2996 22.0467 47.9689 23.5028 46.2625 23.5655H43.0374V41.7753C43.0374 43.9047 41.0961 45.5331 38.7948 45.5331C36.4934 45.5331 34.5991 43.8264 34.5521 41.7753V23.5655H32.2507C30.5443 23.5028 29.2135 21.984 29.2135 20.2304C29.2135 18.4767 30.5443 16.8953 32.2507 16.8953H34.5521V16.8953ZM71.0452 21.0289C70.7478 23.1584 68.7439 24.1291 66.8495 24.1291C66.239 24.1291 65.331 24.0665 64.783 24.0665C60.055 24.0665 58.4738 27.7147 58.3486 34.8076V41.7909C58.3486 43.9204 56.4073 45.5488 54.1059 45.5488C51.8045 45.5488 49.9102 43.8421 49.8633 41.7909V20.3556C49.9259 18.2888 51.8672 16.5978 54.1059 16.5978C56.3447 16.5978 58.3486 18.2419 58.3486 20.3556V23.4558C59.9298 18.1792 62.9043 16.3473 65.8163 16.3473C68.7282 16.3473 71.5775 17.0206 71.0452 21.0289ZM93.8711 43.2471C91.0218 45.126 87.4366 45.7993 84.102 45.7993C75.9611 45.7993 69.2918 39.912 69.2918 30.9872C69.2918 22.0623 75.9768 16.3473 84.102 16.3473C92.2272 16.3473 98.6147 22.2972 98.6147 31.222C98.6147 32.7408 97.3466 33.8369 96.0002 33.8369H77.7302C78.1529 37.1093 81.738 38.5185 84.7126 38.5185C86.419 38.5185 87.875 38.3932 89.6284 37.1876C91.5697 35.8567 93.7615 36.2168 94.967 37.6103C96.5482 39.4266 95.9376 42.0414 93.8711 43.2627V43.2471ZM90.1137 28.5602C89.691 25.0999 87.327 23.3932 84.1646 23.3932C81.0022 23.3932 78.5756 24.9746 77.8554 28.5602H90.1137ZM121.018 20.3556C121.08 18.2888 123.022 16.5978 125.261 16.5978C127.499 16.5978 129.503 18.2419 129.503 20.3556V41.7909C129.503 43.9204 127.562 45.5488 125.261 45.5488C122.959 45.5488 121.065 43.8421 121.018 41.7909V41.2429C119.202 44.2179 115.742 45.7993 112.517 45.7993C105.3 45.7993 98.74 40.46 98.74 31.0498C98.74 21.6396 105.3 16.3629 112.517 16.3629C114.333 16.3629 118.591 17.1458 121.018 20.9193V20.3713V20.3556ZM114.161 38.268C117.981 38.268 121.08 34.8703 121.08 31.0968C121.08 27.3233 117.981 23.9256 114.161 23.9256C109.918 23.9256 107.476 27.3233 107.476 31.0968C107.476 34.8703 109.902 38.268 114.161 38.268V38.268ZM177.66 41.7909C177.66 43.9204 175.718 45.5488 173.417 45.5488C171.116 45.5488 169.221 43.8421 169.174 41.7909V30.126C169.174 26.4151 166.936 24.4736 164.446 24.4736C161.769 24.4736 159.656 26.1176 159.656 30.2356V41.7753C159.656 43.9047 157.715 45.5331 155.413 45.5331C153.112 45.5331 151.217 43.8264 151.17 41.7753V29.9381C151.17 26.3525 148.932 24.4736 146.489 24.4736C143.938 24.4736 141.574 25.9298 141.574 30.2356V41.7753C141.574 43.9047 139.632 45.5331 137.331 45.5331C135.03 45.5331 133.135 43.8264 133.088 41.7753V20.3556C133.151 18.2888 135.092 16.5978 137.331 16.5978C139.57 16.5978 141.574 18.2419 141.574 20.3556V21.0289C142.904 18.054 145.942 16.3473 148.979 16.3473C153.472 16.3473 156.446 17.8034 158.325 21.6865C160.392 17.1928 164.572 16.2847 166.576 16.2847C173.307 16.2847 177.628 20.5905 177.691 29.1552V41.7909H177.66ZM208.251 33.7742L212.681 19.197C213.167 17.3181 215.358 16.0341 218.02 16.77C220.086 17.3181 221.245 19.8703 220.509 21.8118L213.339 42.2763C212.603 44.3431 210.975 45.5488 208.908 45.5488H208.548C206.482 45.5488 204.9 44.3275 204.306 42.2763L199.687 27.2137L195.257 42.2763C194.583 44.3431 193.065 45.5488 191.014 45.5488H190.654C188.587 45.5488 187.006 44.3275 186.223 42.2763L178.818 21.8118C178.082 19.8703 179.241 17.3181 181.307 16.77C183.985 16.0341 186.161 17.3181 186.646 19.197L191.077 33.7742L195.147 19.9955C195.82 17.6938 197.339 16.5978 199.452 16.5978H199.938C202.067 16.5978 203.523 17.6938 204.18 19.9955L208.251 33.7742V33.7742ZM242.615 20.3556C242.677 18.2888 244.619 16.5978 246.857 16.5978C249.096 16.5978 251.1 18.2419 251.1 20.3556V41.7909C251.1 43.9204 249.159 45.5488 246.857 45.5488C244.556 45.5488 242.662 43.8421 242.615 41.7909V41.2429C240.799 44.2179 237.339 45.7993 234.114 45.7993C226.897 45.7993 220.337 40.46 220.337 31.0498C220.337 21.6396 226.897 16.3629 234.114 16.3629C235.93 16.3629 240.188 17.1458 242.615 20.9193V20.3713V20.3556ZM235.758 38.268C239.578 38.268 242.677 34.8703 242.677 31.0968C242.677 27.3233 239.578 23.9256 235.758 23.9256C231.515 23.9256 229.073 27.3233 229.073 31.0968C229.073 34.8703 231.499 38.268 235.758 38.268ZM275.82 21.0289C275.523 23.1584 273.519 24.1291 271.625 24.1291C271.014 24.1291 270.106 24.0665 269.558 24.0665C264.83 24.0665 263.249 27.7147 263.124 34.8076V41.7909C263.124 43.9204 261.182 45.5488 258.881 45.5488C256.58 45.5488 254.685 43.8421 254.638 41.7909V20.3556C254.701 18.2888 256.642 16.5978 258.881 16.5978C261.12 16.5978 263.124 18.2419 263.124 20.3556V23.4558C264.705 18.1792 267.679 16.3473 270.591 16.3473C273.503 16.3473 276.352 17.0206 275.805 21.0289H275.82ZM296.407 4.93289C296.47 2.86608 298.411 1.17506 300.65 1.17506C302.889 1.17506 304.893 2.81911 304.893 4.93289V41.7909C304.893 43.9204 302.951 45.5488 300.65 45.5488C298.349 45.5488 296.454 43.8421 296.407 41.7909V41.2429C294.591 44.2179 291.131 45.7993 287.906 45.7993C280.689 45.7993 274.129 40.46 274.129 31.0498C274.129 21.6396 280.689 16.3629 287.906 16.3629C289.722 16.3629 293.981 17.1458 296.407 20.9193V4.93289V4.93289ZM289.55 38.268C293.37 38.268 296.47 34.8703 296.47 31.0968C296.47 27.3233 293.37 23.9256 289.55 23.9256C285.307 23.9256 282.865 27.3233 282.865 31.0968C282.865 34.8703 285.292 38.268 289.55 38.268ZM349.777 17.8348L321.691 1.62913C319.875 0.580066 317.746 0.533093 315.898 1.45689C313.769 2.52161 312.501 4.77631 312.501 7.14061V39.1761C312.501 41.3838 313.597 43.4819 315.476 44.6093C316.462 45.1886 317.542 45.4861 318.623 45.4861C319.703 45.4861 320.72 45.2043 321.691 44.6563L349.762 28.4506C351.671 27.3389 352.83 25.3661 352.83 23.1427C352.83 20.9193 351.687 18.9465 349.762 17.8348H349.777Z" fill="#F96800"/>
</svg>
